<svg width="201" height="26" viewBox="0 0 201 26" fill="none" xmlns="http://www.w3.org/2000/svg">
<g clip-path="url(#clip0_1227_50)">
<path fill-rule="evenodd" clip-rule="evenodd" d="M0.226259 0.0975832C0.00507029 0.214683 0.0245869 0.325277 0.278303 0.390333C0.375886 0.42286 0.538525 0.513938 0.629603 0.605016C0.72068 0.689588 1.41677 1.07341 2.16491 1.45724C2.91955 1.84107 3.81081 2.30296 4.1491 2.47861C5.03386 2.94701 6.14631 3.53251 8.18254 4.59292C8.87213 4.95723 10.6937 5.90704 12.2485 6.72673C12.6063 6.91539 13.2829 7.26669 13.7448 7.5074C14.2132 7.7481 14.7076 8.01483 14.8507 8.0929C14.9938 8.17097 15.4362 8.40516 15.8266 8.61334C16.2234 8.81501 16.5812 9.02319 16.6332 9.06873C16.7503 9.17932 16.6723 9.29642 16.4706 9.29642C16.3795 9.29642 16.2429 9.34196 16.1648 9.39401C16.0803 9.44605 15.15 9.70627 14.0896 9.97951C13.0292 10.2462 12.0859 10.4934 11.9948 10.5325C11.7866 10.6105 11.7736 10.7276 11.9753 10.7276C12.0598 10.7276 12.1835 10.7927 12.255 10.8643C12.4111 11.0334 12.795 11.3262 14.2002 12.341C15.2346 13.0827 16.9845 14.3577 17.8107 14.9628C18.0059 15.1059 18.5329 15.4897 18.9817 15.8085C19.4306 16.1338 19.9576 16.5111 20.1527 16.6542C20.3479 16.7908 20.8098 17.1226 21.1676 17.3828C21.9027 17.9033 22.0003 17.9748 22.6118 18.4367C22.8525 18.6189 23.5291 19.1133 24.1211 19.5427C24.7131 19.9655 25.2076 20.3298 25.2271 20.3559C25.2466 20.3754 25.3832 20.473 25.5328 20.5705C25.689 20.6681 25.9102 20.8438 26.0338 20.9609C26.1509 21.078 26.2875 21.1625 26.333 21.1495C26.3851 21.13 26.3981 21.1495 26.372 21.1951C26.346 21.2341 26.3655 21.2666 26.4241 21.2666C26.4826 21.2666 26.5282 21.2926 26.5282 21.3317C26.5282 21.3642 26.5737 21.3967 26.6323 21.3967C26.6843 21.3967 26.7103 21.4228 26.6908 21.4618C26.6713 21.4943 26.6908 21.5268 26.7364 21.5268C26.8795 21.5334 27.1137 21.7676 27.1137 21.9172C27.1137 21.9952 27.1462 22.0343 27.1787 22.0148C27.2178 21.9952 27.2438 22.0018 27.2438 22.0408C27.2438 22.0798 27.2893 22.0863 27.3544 22.0668C27.4194 22.0408 27.4455 22.0538 27.4194 22.0928C27.3934 22.1319 27.4325 22.2099 27.4975 22.2685C27.6146 22.3791 27.6276 22.3791 27.6536 22.262C27.6797 22.1709 27.6862 22.1774 27.6927 22.2945C27.6992 22.3921 27.7512 22.4636 27.8293 22.4832C27.9009 22.5027 27.9594 22.5417 27.9594 22.5612C27.9594 22.5873 28.096 22.7109 28.2717 22.828C28.4408 22.9516 28.5904 23.0687 28.61 23.0882C28.6295 23.1077 28.8507 23.2703 29.0979 23.446C29.3516 23.6216 30.0347 24.1291 30.6202 24.5649C31.3033 25.0789 31.7131 25.3456 31.7586 25.3131C32.0839 25.0594 38.9408 20.0566 40.6452 18.827C41.1657 18.4497 41.8683 17.9423 42.2066 17.6886C42.5448 17.4414 43.3645 16.8429 44.0151 16.3745C44.6721 15.8996 45.5244 15.2815 45.9017 15.0018C46.2855 14.722 46.6694 14.4488 46.7604 14.3838C46.8515 14.3252 47.1573 14.0975 47.4435 13.8828C47.7363 13.6681 48.068 13.4209 48.1917 13.3299C48.3153 13.2453 48.4519 13.1477 48.4844 13.1217C48.5234 13.0892 49.1219 12.6468 49.818 12.1459C50.5141 11.6384 51.0996 11.2091 51.1191 11.1895C51.1387 11.1635 51.2428 11.105 51.3468 11.0529C51.5941 10.9228 51.6331 10.7016 51.4314 10.5715C51.3468 10.5195 50.4491 10.2657 49.4277 10.0185C47.4435 9.52412 47.0207 9.37449 47.0207 9.17282C47.0207 9.10126 46.9881 9.0362 46.9426 9.02319C46.8515 8.99066 47.2288 8.78249 49.2325 7.73509C51.0346 6.79179 51.8608 6.36242 52.5829 5.9786C52.9082 5.80945 53.5522 5.47116 54.0141 5.23046C54.9769 4.72953 55.9918 4.19608 56.7464 3.79924C57.0327 3.64961 57.6767 3.31132 58.1777 3.0511C58.6786 2.79088 59.5113 2.3485 60.0317 2.07527C60.5522 1.80204 61.4435 1.35315 62.0159 1.07341C62.5884 0.793676 63.1024 0.546466 63.1544 0.520444C63.317 0.435872 63.3105 0.208177 63.1349 0.0910776C62.9918 0 62.4518 -0.00650555 57.8134 0.00650555L52.6479 0.0260222L51.542 0.338288C50.937 0.513938 49.4732 0.897765 48.2892 1.19702C47.1117 1.49628 45.5699 1.89311 44.8738 2.07527C44.1777 2.25742 43.345 2.47861 43.0197 2.56318C42.701 2.64125 41.2047 3.03158 39.7019 3.42842C36.911 4.16355 35.6229 4.50184 34.53 4.78158C33.1638 5.13938 32.6564 5.26949 32.1815 5.3996L31.6871 5.53622L29.5142 4.97024C28.3172 4.65797 27.1397 4.35221 26.886 4.28715C25.188 3.83827 24.57 3.67563 23.2104 3.31783C21.1156 2.77136 20.2243 2.53716 18.5914 2.1078C17.8238 1.90612 16.4641 1.55483 15.5663 1.32063C14.6751 1.09293 13.1528 0.702599 12.1835 0.455388L10.427 0H5.41769C1.05246 0 0.382392 0.0130111 0.226259 0.0975832ZM11.0775 1.63289C11.3638 1.72397 12.0664 1.94516 12.6388 2.12731C13.9074 2.52415 17.1927 3.54552 19.1769 4.16355C19.9836 4.41727 21.2847 4.82061 22.0719 5.06782C22.8591 5.31503 24.3228 5.76391 25.3247 6.07618C26.3265 6.38845 27.6601 6.8048 28.2847 6.99997C28.9092 7.19513 29.5728 7.40331 29.7484 7.45535C29.9306 7.5074 30.4315 7.66353 30.8739 7.80665L31.6741 8.06037L32.3702 7.83918C32.754 7.71558 33.6973 7.42283 34.465 7.18212C35.2326 6.94792 35.9352 6.72673 36.0263 6.69421C36.1174 6.66168 36.924 6.41447 37.8153 6.14123C38.7131 5.8615 40.0012 5.46466 40.6777 5.24997C41.3608 5.03529 42.0049 4.83362 42.109 4.8076C42.2196 4.78158 42.7725 4.61243 43.345 4.43028C44.3274 4.11801 45.7976 3.66262 48.9398 2.68679C49.6944 2.45259 50.8134 2.10129 51.4249 1.91263C52.0429 1.71746 52.7325 1.5288 52.9537 1.48977C53.4742 1.4052 56.0634 1.4052 56.1935 1.48977C56.2715 1.54181 56.2715 1.55483 56.1609 1.56133C56.0894 1.56133 56.0699 1.58085 56.1154 1.60036C56.2325 1.6459 56.213 1.77601 56.0504 1.92564C55.9658 1.9972 54.0987 2.77787 51.8998 3.65612C49.7009 4.53437 45.648 6.14774 42.8896 7.24718C40.1378 8.34661 37.8088 9.28992 37.7242 9.34196L37.5616 9.44605L37.7047 9.4981C37.7828 9.53062 37.8673 9.60218 37.8934 9.66074C37.9389 9.79085 37.9714 9.80386 39.8841 10.3763C41.5039 10.8643 41.9658 11.0334 41.9138 11.118C41.8943 11.144 41.8097 11.1505 41.7251 11.1375C41.608 11.1115 41.517 11.1505 41.4129 11.2676C41.3283 11.3652 40.925 11.6124 40.5151 11.8206C40.1053 12.0353 38.583 12.8224 37.1322 13.5706C35.6815 14.3252 33.8599 15.2685 33.0793 15.6654L31.6676 16.4005L30.1192 15.6003C29.2735 15.1644 28.2847 14.657 27.9269 14.4683C27.5691 14.2797 26.1053 13.5185 24.6741 12.7769C23.2429 12.0353 22.0198 11.3782 21.9548 11.3262C21.8897 11.2676 21.8507 11.17 21.8637 11.105C21.8832 11.0334 21.8507 10.9879 21.7531 10.9749C21.6035 10.9488 23.3275 10.3894 25.6694 9.71278C25.7085 9.69977 25.7475 9.6217 25.7475 9.53062C25.7475 9.34196 26.899 9.82337 16.1518 5.52321C10.1862 3.14218 7.33032 1.97118 7.25225 1.8736C7.16768 1.763 7.15467 1.71096 7.21322 1.6459C7.27177 1.57434 7.26526 1.55483 7.2002 1.55483C7.12864 1.55483 7.12864 1.54181 7.20671 1.48977C7.26526 1.45074 7.92232 1.43122 8.93068 1.45074C10.4465 1.47025 10.5961 1.48326 11.0775 1.63289Z" fill="black"/>
<path fill-rule="evenodd" clip-rule="evenodd" d="M70.1804 13.6226V21.722H77.9805L87.0427 15.1904C92.026 11.5994 96.1115 8.66537 96.1245 8.67838C96.1375 8.68489 94.8559 10.2983 93.275 12.2629C91.7007 14.2276 90.4126 15.8475 90.4126 15.8735C90.4126 15.893 92.2277 17.2202 94.4395 18.8205L98.4665 21.722L102.337 21.709L106.208 21.6895L100.939 17.8902C97.4841 15.3986 95.6821 14.065 95.7081 14.0064C95.7276 13.9609 96.9832 12.0352 98.5055 9.72578L101.27 5.52319H96.9637L92.657 5.5297L84.0502 11.736C79.3141 15.1514 75.4303 17.9488 75.4108 17.9488C75.3978 17.9488 75.3848 15.1514 75.3848 11.736V5.52319H70.1804V13.6226Z" fill="black"/>
<path fill-rule="evenodd" clip-rule="evenodd" d="M119.753 12.1979C116.155 15.8735 112.59 19.5166 111.829 20.2973L110.437 21.722H114.334L118.224 21.7155L124.105 15.3401C127.338 11.8336 129.999 8.97113 130.025 8.98414C130.051 8.99716 132.874 11.8661 136.303 15.3596L142.535 21.722H149.359L149.21 21.5333C149.125 21.4358 145.768 17.7861 141.748 13.4339L134.442 5.52319H126.291L119.753 12.1979Z" fill="black"/>
<path fill-rule="evenodd" clip-rule="evenodd" d="M153.581 13.6226V21.722H156.184H158.786V13.6226V5.52319H156.184H153.581V13.6226Z" fill="black"/>
<path fill-rule="evenodd" clip-rule="evenodd" d="M164.283 5.62728C164.355 5.67933 166.736 7.39679 169.572 9.43953C172.408 11.4888 174.718 13.1932 174.698 13.2323C174.672 13.2973 169.761 20.7917 169.312 21.4423L169.123 21.722H173.436L177.75 21.7155L186.174 15.6393C190.806 12.2955 194.618 9.55663 194.651 9.55663C194.677 9.55663 194.696 12.2955 194.696 15.6393V21.722H199.901V5.73137L200.051 5.63379C200.181 5.5362 199.855 5.5297 196.31 5.5297L192.426 5.52319L183.364 12.0548C178.381 15.6458 174.295 18.5798 174.282 18.5668C174.269 18.5538 175.551 16.9404 177.125 14.9823C178.706 13.0176 179.987 11.3912 179.981 11.3652C179.968 11.3392 178.153 10.0185 175.941 8.42467L171.921 5.52319H168.037C164.556 5.5297 164.166 5.5362 164.283 5.62728Z" fill="black"/>
<path fill-rule="evenodd" clip-rule="evenodd" d="M26.7233 21.683C26.7233 21.696 26.7689 21.7416 26.8209 21.7871C26.9055 21.8587 26.912 21.8522 26.8795 21.7611C26.8469 21.67 26.7233 21.6114 26.7233 21.683Z" fill="black"/>
</g>
<defs>
<clipPath id="clip0_1227_50">
<rect width="200" height="25.3157" fill="white" transform="translate(0.0733643)"/>
</clipPath>
</defs>
</svg>
